<svg width="128" height="17" viewBox="0 0 128 17" fill="none" xmlns="http://www.w3.org/2000/svg">
<path d="M0.78125 2.78906V-4.76837e-07H13.9219V2.78906H9.02344V16H5.67969V2.78906H0.78125ZM19.752 16.2344C18.5176 16.2344 17.4551 15.9844 16.5645 15.4844C15.679 14.9792 14.9967 14.2656 14.5176 13.3437C14.0384 12.4167 13.7988 11.3203 13.7988 10.0547C13.7988 8.82031 14.0384 7.73698 14.5176 6.80469C14.9967 5.8724 15.6712 5.14583 16.541 4.625C17.416 4.10417 18.4421 3.84375 19.6191 3.84375C20.4108 3.84375 21.1478 3.97135 21.8301 4.22656C22.5176 4.47656 23.1165 4.85417 23.627 5.35937C24.1426 5.86458 24.5436 6.5 24.8301 7.26562C25.1165 8.02604 25.2598 8.91667 25.2598 9.9375V10.8516H15.127V8.78906H22.127C22.127 8.3099 22.0228 7.88542 21.8145 7.51563C21.6061 7.14583 21.3171 6.85677 20.9473 6.64844C20.5827 6.4349 20.1582 6.32812 19.6738 6.32812C19.1686 6.32812 18.7207 6.44531 18.3301 6.67969C17.9447 6.90885 17.6426 7.21875 17.4238 7.60937C17.2051 7.99479 17.0931 8.42448 17.0879 8.89844V10.8594C17.0879 11.4531 17.1973 11.9661 17.416 12.3984C17.64 12.8307 17.9551 13.1641 18.3613 13.3984C18.7676 13.6328 19.2493 13.75 19.8066 13.75C20.1764 13.75 20.515 13.6979 20.8223 13.5938C21.1296 13.4896 21.3926 13.3333 21.6113 13.125C21.8301 12.9167 21.9967 12.6615 22.1113 12.3594L25.1895 12.5625C25.0332 13.3021 24.7129 13.9479 24.2285 14.5C23.7493 15.0469 23.1296 15.474 22.3691 15.7813C21.6139 16.0833 20.7415 16.2344 19.752 16.2344ZM29.998 4L32.2012 8.19531L34.459 4H37.873L34.3965 10L37.9668 16H34.5684L32.2012 11.8516L29.873 16H26.4355L29.998 10L26.5605 4H29.998ZM43.1777 9.0625V16H39.8496V4H43.0215V6.11719H43.1621C43.4277 5.41927 43.873 4.86719 44.498 4.46094C45.123 4.04948 45.8809 3.84375 46.7715 3.84375C47.6048 3.84375 48.3314 4.02604 48.9512 4.39062C49.571 4.75521 50.0527 5.27604 50.3965 5.95312C50.7402 6.625 50.9121 7.42708 50.9121 8.35937V16H47.584V8.95312C47.5892 8.21875 47.4017 7.64583 47.0215 7.23438C46.6413 6.81771 46.1178 6.60937 45.4512 6.60937C45.0033 6.60937 44.6074 6.70573 44.2637 6.89844C43.9251 7.09115 43.6595 7.3724 43.4668 7.74219C43.2793 8.10677 43.1829 8.54688 43.1777 9.0625ZM58.957 16.2344C57.7435 16.2344 56.694 15.9766 55.8086 15.4609C54.9284 14.9401 54.2487 14.2161 53.7695 13.2891C53.2904 12.3568 53.0508 11.276 53.0508 10.0469C53.0508 8.80729 53.2904 7.72396 53.7695 6.79687C54.2487 5.86458 54.9284 5.14062 55.8086 4.625C56.694 4.10417 57.7435 3.84375 58.957 3.84375C60.1706 3.84375 61.2174 4.10417 62.0977 4.625C62.9831 5.14062 63.6654 5.86458 64.1445 6.79687C64.6237 7.72396 64.8633 8.80729 64.8633 10.0469C64.8633 11.276 64.6237 12.3568 64.1445 13.2891C63.6654 14.2161 62.9831 14.9401 62.0977 15.4609C61.2174 15.9766 60.1706 16.2344 58.957 16.2344ZM58.9727 13.6562C59.5247 13.6562 59.9857 13.5 60.3555 13.1875C60.7253 12.8698 61.0039 12.4375 61.1914 11.8906C61.3841 11.3437 61.4805 10.7214 61.4805 10.0234C61.4805 9.32552 61.3841 8.70313 61.1914 8.15625C61.0039 7.60937 60.7253 7.17708 60.3555 6.85937C59.9857 6.54167 59.5247 6.38281 58.9727 6.38281C58.4154 6.38281 57.9466 6.54167 57.5664 6.85937C57.1914 7.17708 56.9076 7.60937 56.7148 8.15625C56.5273 8.70313 56.4336 9.32552 56.4336 10.0234C56.4336 10.7214 56.5273 11.3437 56.7148 11.8906C56.9076 12.4375 57.1914 12.8698 57.5664 13.1875C57.9466 13.5 58.4154 13.6562 58.9727 13.6562Z" fill="#323232"/>
<path d="M67.0898 16V-4.76837e-07H70.418V6.01562H70.5195C70.6654 5.69271 70.8763 5.36458 71.1523 5.03125C71.4336 4.69271 71.7982 4.41146 72.2461 4.1875C72.6992 3.95833 73.2617 3.84375 73.9336 3.84375C74.8086 3.84375 75.6159 4.07292 76.3555 4.53125C77.0951 4.98437 77.6862 5.66927 78.1289 6.58594C78.5716 7.4974 78.793 8.64062 78.793 10.0156C78.793 11.3542 78.5768 12.4844 78.1445 13.4062C77.7174 14.3229 77.1341 15.0182 76.3945 15.4922C75.6602 15.9609 74.8372 16.1953 73.9258 16.1953C73.2799 16.1953 72.7305 16.0885 72.2773 15.875C71.8294 15.6615 71.4622 15.3932 71.1758 15.0703C70.8893 14.7422 70.6706 14.4115 70.5195 14.0781H70.3711V16H67.0898ZM70.3477 10C70.3477 10.7135 70.4466 11.3359 70.6445 11.8672C70.8424 12.3984 71.1289 12.8125 71.5039 13.1094C71.8789 13.401 72.3346 13.5469 72.8711 13.5469C73.4128 13.5469 73.8711 13.3984 74.2461 13.1016C74.6211 12.7995 74.9049 12.3828 75.0977 11.8516C75.2956 11.3151 75.3945 10.6979 75.3945 10C75.3945 9.30729 75.2982 8.69792 75.1055 8.17187C74.9128 7.64583 74.6289 7.23437 74.2539 6.9375C73.8789 6.64062 73.418 6.49219 72.8711 6.49219C72.3294 6.49219 71.8711 6.63542 71.4961 6.92187C71.1263 7.20833 70.8424 7.61458 70.6445 8.14062C70.4466 8.66667 70.3477 9.28646 70.3477 10ZM86.4355 16.2344C85.222 16.2344 84.1725 15.9766 83.2871 15.4609C82.4069 14.9401 81.7272 14.2161 81.248 13.2891C80.7689 12.3568 80.5293 11.276 80.5293 10.0469C80.5293 8.80729 80.7689 7.72396 81.248 6.79687C81.7272 5.86458 82.4069 5.14062 83.2871 4.625C84.1725 4.10417 85.222 3.84375 86.4355 3.84375C87.6491 3.84375 88.696 4.10417 89.5762 4.625C90.4616 5.14062 91.1439 5.86458 91.623 6.79687C92.1022 7.72396 92.3418 8.80729 92.3418 10.0469C92.3418 11.276 92.1022 12.3568 91.623 13.2891C91.1439 14.2161 90.4616 14.9401 89.5762 15.4609C88.696 15.9766 87.6491 16.2344 86.4355 16.2344ZM86.4512 13.6562C87.0033 13.6562 87.4642 13.5 87.834 13.1875C88.2038 12.8698 88.4824 12.4375 88.6699 11.8906C88.8626 11.3437 88.959 10.7214 88.959 10.0234C88.959 9.32552 88.8626 8.70313 88.6699 8.15625C88.4824 7.60937 88.2038 7.17708 87.834 6.85937C87.4642 6.54167 87.0033 6.38281 86.4512 6.38281C85.8939 6.38281 85.4251 6.54167 85.0449 6.85937C84.6699 7.17708 84.3861 7.60937 84.1934 8.15625C84.0059 8.70313 83.9121 9.32552 83.9121 10.0234C83.9121 10.7214 84.0059 11.3437 84.1934 11.8906C84.3861 12.4375 84.6699 12.8698 85.0449 13.1875C85.4251 13.5 85.8939 13.6562 86.4512 13.6562ZM94.4434 16V14.0156L100.318 6.74219V6.65625H94.6465V4H104.326V6.16406L98.8105 13.2578V13.3437H104.529V16H94.4434ZM112.152 16.2344C110.939 16.2344 109.889 15.9766 109.004 15.4609C108.124 14.9401 107.444 14.2161 106.965 13.2891C106.486 12.3568 106.246 11.276 106.246 10.0469C106.246 8.80729 106.486 7.72396 106.965 6.79687C107.444 5.86458 108.124 5.14062 109.004 4.625C109.889 4.10417 110.939 3.84375 112.152 3.84375C113.366 3.84375 114.413 4.10417 115.293 4.625C116.178 5.14062 116.861 5.86458 117.34 6.79687C117.819 7.72396 118.059 8.80729 118.059 10.0469C118.059 11.276 117.819 12.3568 117.34 13.2891C116.861 14.2161 116.178 14.9401 115.293 15.4609C114.413 15.9766 113.366 16.2344 112.152 16.2344ZM112.168 13.6562C112.72 13.6562 113.181 13.5 113.551 13.1875C113.921 12.8698 114.199 12.4375 114.387 11.8906C114.579 11.3437 114.676 10.7214 114.676 10.0234C114.676 9.32552 114.579 8.70313 114.387 8.15625C114.199 7.60937 113.921 7.17708 113.551 6.85937C113.181 6.54167 112.72 6.38281 112.168 6.38281C111.611 6.38281 111.142 6.54167 110.762 6.85937C110.387 7.17708 110.103 7.60937 109.91 8.15625C109.723 8.70313 109.629 9.32552 109.629 10.0234C109.629 10.7214 109.723 11.3437 109.91 11.8906C110.103 12.4375 110.387 12.8698 110.762 13.1875C111.142 13.5 111.611 13.6562 112.168 13.6562ZM120.223 16V4H123.449V6.09375H123.574C123.793 5.34896 124.16 4.78646 124.676 4.40625C125.191 4.02083 125.785 3.82812 126.457 3.82812C126.624 3.82812 126.803 3.83854 126.996 3.85937C127.189 3.88021 127.358 3.90885 127.504 3.94531V6.89844C127.348 6.85156 127.132 6.8099 126.855 6.77344C126.579 6.73698 126.327 6.71875 126.098 6.71875C125.608 6.71875 125.171 6.82552 124.785 7.03906C124.405 7.2474 124.103 7.53906 123.879 7.91406C123.66 8.28906 123.551 8.72135 123.551 9.21094V16H120.223Z" fill="#1B99E0"/>
</svg>
