<svg width="151" height="20" viewBox="0 0 151 20" fill="none" xmlns="http://www.w3.org/2000/svg">
<path d="M0.923295 3.38707V0.0909085H16.4531V3.38707H10.6641V19H6.71236V3.38707H0.923295ZM23.3432 19.277C21.8844 19.277 20.6287 18.9815 19.5762 18.3906C18.5298 17.7936 17.7234 16.9503 17.1571 15.8608C16.5908 14.7652 16.3077 13.4695 16.3077 11.9737C16.3077 10.5149 16.5908 9.23461 17.1571 8.13281C17.7234 7.03101 18.5205 6.17235 19.5485 5.55682C20.5826 4.94129 21.7952 4.63352 23.1863 4.63352C24.1219 4.63352 24.9928 4.78433 25.7992 5.08594C26.6117 5.38139 27.3195 5.82765 27.9228 6.42472C28.5321 7.02178 29.0061 7.77273 29.3446 8.67756C29.6832 9.57623 29.8525 10.6288 29.8525 11.8352V12.9155H17.8773V10.478H26.15C26.15 9.91169 26.0269 9.41004 25.7807 8.97301C25.5345 8.53598 25.1929 8.19437 24.7559 7.94815C24.325 7.69579 23.8233 7.5696 23.2509 7.5696C22.6538 7.5696 22.1245 7.7081 21.6628 7.98508C21.2073 8.25592 20.8503 8.62216 20.5918 9.08381C20.3333 9.5393 20.2009 10.0471 20.1948 10.6072V12.9247C20.1948 13.6264 20.324 14.2327 20.5826 14.7436C20.8472 15.2545 21.2196 15.6484 21.6998 15.9254C22.1799 16.2024 22.7492 16.3409 23.4078 16.3409C23.8449 16.3409 24.245 16.2794 24.6081 16.1562C24.9713 16.0331 25.2821 15.8485 25.5407 15.6023C25.7992 15.3561 25.9962 15.0545 26.1316 14.6974L29.7694 14.9375C29.5847 15.8116 29.2061 16.5748 28.6337 17.2273C28.0674 17.8736 27.3349 18.3783 26.4363 18.7415C25.5437 19.0985 24.5127 19.277 23.3432 19.277ZM35.4522 4.81818L38.0559 9.77628L40.7243 4.81818H44.7591L40.6504 11.9091L44.8699 19H40.8535L38.0559 14.0973L35.3045 19H31.242L35.4522 11.9091L31.3897 4.81818H35.4522ZM51.0282 10.8011V19H47.095V4.81818H50.8436V7.32031H51.0098C51.3237 6.4955 51.85 5.84304 52.5886 5.36293C53.3272 4.87666 54.2228 4.63352 55.2754 4.63352C56.2602 4.63352 57.1189 4.84896 57.8514 5.27983C58.5839 5.7107 59.1532 6.32623 59.5595 7.12642C59.9657 7.92045 60.1689 8.86837 60.1689 9.97017V19H56.2356V10.6719C56.2418 9.80398 56.0202 9.12689 55.5708 8.64062C55.1215 8.1482 54.5029 7.90199 53.715 7.90199C53.1857 7.90199 52.7179 8.01586 52.3116 8.24361C51.9115 8.47135 51.5976 8.80374 51.3699 9.24077C51.1483 9.67164 51.0344 10.1918 51.0282 10.8011ZM69.6765 19.277C68.2423 19.277 67.002 18.9723 65.9556 18.3629C64.9154 17.7474 64.1121 16.8918 63.5458 15.7962C62.9795 14.6944 62.6964 13.4171 62.6964 11.9645C62.6964 10.4995 62.9795 9.21922 63.5458 8.12358C64.1121 7.02178 64.9154 6.16619 65.9556 5.55682C67.002 4.94129 68.2423 4.63352 69.6765 4.63352C71.1107 4.63352 72.3479 4.94129 73.3881 5.55682C74.4345 6.16619 75.2409 7.02178 75.8072 8.12358C76.3735 9.21922 76.6566 10.4995 76.6566 11.9645C76.6566 13.4171 76.3735 14.6944 75.8072 15.7962C75.2409 16.8918 74.4345 17.7474 73.3881 18.3629C72.3479 18.9723 71.1107 19.277 69.6765 19.277ZM69.695 16.2301C70.3474 16.2301 70.8922 16.0455 71.3292 15.6761C71.7662 15.3007 72.0955 14.7898 72.3171 14.1435C72.5449 13.4972 72.6587 12.7616 72.6587 11.9368C72.6587 11.112 72.5449 10.3764 72.3171 9.73011C72.0955 9.08381 71.7662 8.57292 71.3292 8.19744C70.8922 7.82197 70.3474 7.63423 69.695 7.63423C69.0363 7.63423 68.4824 7.82197 68.033 8.19744C67.5898 8.57292 67.2544 9.08381 67.0266 9.73011C66.805 10.3764 66.6942 11.112 66.6942 11.9368C66.6942 12.7616 66.805 13.4972 67.0266 14.1435C67.2544 14.7898 67.5898 15.3007 68.033 15.6761C68.4824 16.0455 69.0363 16.2301 69.695 16.2301Z" fill="white"/>
<path d="M79.288 19V0.0909085H83.2212V7.20028H83.3413C83.5136 6.81865 83.7629 6.43087 84.0891 6.03693C84.4215 5.63684 84.8524 5.30445 85.3817 5.03977C85.9173 4.76894 86.582 4.63352 87.3761 4.63352C88.4102 4.63352 89.3642 4.90436 90.2383 5.44602C91.1123 5.98153 91.811 6.79096 92.3342 7.87429C92.8574 8.95147 93.119 10.3026 93.119 11.9276C93.119 13.5095 92.8635 14.8452 92.3526 15.9347C91.8479 17.018 91.1585 17.8397 90.2844 18.3999C89.4165 18.9538 88.444 19.2308 87.3668 19.2308C86.6036 19.2308 85.9542 19.1046 85.4187 18.8523C84.8893 18.5999 84.4554 18.2829 84.1168 17.9013C83.7783 17.5135 83.5198 17.1226 83.3413 16.7287H83.1658V19H79.288ZM83.1381 11.9091C83.1381 12.7524 83.2551 13.4879 83.489 14.1158C83.7229 14.7436 84.0614 15.233 84.5046 15.5838C84.9478 15.9285 85.4864 16.1009 86.1204 16.1009C86.7605 16.1009 87.3022 15.9254 87.7454 15.5746C88.1886 15.2176 88.524 14.7251 88.7518 14.0973C88.9857 13.4633 89.1026 12.7339 89.1026 11.9091C89.1026 11.0904 88.9888 10.3703 88.761 9.74858C88.5333 9.12689 88.1978 8.64062 87.7546 8.28977C87.3114 7.93892 86.7667 7.76349 86.1204 7.76349C85.4802 7.76349 84.9386 7.93276 84.4954 8.27131C84.0584 8.60985 83.7229 9.08996 83.489 9.71165C83.2551 10.3333 83.1381 11.0658 83.1381 11.9091ZM102.151 19.277C100.717 19.277 99.4766 18.9723 98.4302 18.3629C97.39 17.7474 96.5867 16.8918 96.0204 15.7962C95.4541 14.6944 95.171 13.4171 95.171 11.9645C95.171 10.4995 95.4541 9.21922 96.0204 8.12358C96.5867 7.02178 97.39 6.16619 98.4302 5.55682C99.4766 4.94129 100.717 4.63352 102.151 4.63352C103.585 4.63352 104.823 4.94129 105.863 5.55682C106.909 6.16619 107.715 7.02178 108.282 8.12358C108.848 9.21922 109.131 10.4995 109.131 11.9645C109.131 13.4171 108.848 14.6944 108.282 15.7962C107.715 16.8918 106.909 17.7474 105.863 18.3629C104.823 18.9723 103.585 19.277 102.151 19.277ZM102.17 16.2301C102.822 16.2301 103.367 16.0455 103.804 15.6761C104.241 15.3007 104.57 14.7898 104.792 14.1435C105.019 13.4972 105.133 12.7616 105.133 11.9368C105.133 11.112 105.019 10.3764 104.792 9.73011C104.57 9.08381 104.241 8.57292 103.804 8.19744C103.367 7.82197 102.822 7.63423 102.17 7.63423C101.511 7.63423 100.957 7.82197 100.508 8.19744C100.064 8.57292 99.729 9.08381 99.5012 9.73011C99.2797 10.3764 99.1689 11.112 99.1689 11.9368C99.1689 12.7616 99.2797 13.4972 99.5012 14.1435C99.729 14.7898 100.064 15.3007 100.508 15.6761C100.957 16.0455 101.511 16.2301 102.17 16.2301ZM111.615 19V16.6548L118.558 8.05895V7.95739H111.855V4.81818H123.295V7.37571L116.776 15.7592V15.8608H123.535V19H111.615ZM132.544 19.277C131.109 19.277 129.869 18.9723 128.823 18.3629C127.783 17.7474 126.979 16.8918 126.413 15.7962C125.847 14.6944 125.564 13.4171 125.564 11.9645C125.564 10.4995 125.847 9.21922 126.413 8.12358C126.979 7.02178 127.783 6.16619 128.823 5.55682C129.869 4.94129 131.109 4.63352 132.544 4.63352C133.978 4.63352 135.215 4.94129 136.255 5.55682C137.302 6.16619 138.108 7.02178 138.674 8.12358C139.241 9.21922 139.524 10.4995 139.524 11.9645C139.524 13.4171 139.241 14.6944 138.674 15.7962C138.108 16.8918 137.302 17.7474 136.255 18.3629C135.215 18.9723 133.978 19.277 132.544 19.277ZM132.562 16.2301C133.215 16.2301 133.759 16.0455 134.196 15.6761C134.633 15.3007 134.963 14.7898 135.184 14.1435C135.412 13.4972 135.526 12.7616 135.526 11.9368C135.526 11.112 135.412 10.3764 135.184 9.73011C134.963 9.08381 134.633 8.57292 134.196 8.19744C133.759 7.82197 133.215 7.63423 132.562 7.63423C131.904 7.63423 131.35 7.82197 130.9 8.19744C130.457 8.57292 130.122 9.08381 129.894 9.73011C129.672 10.3764 129.561 11.112 129.561 11.9368C129.561 12.7616 129.672 13.4972 129.894 14.1435C130.122 14.7898 130.457 15.3007 130.9 15.6761C131.35 16.0455 131.904 16.2301 132.562 16.2301ZM142.081 19V4.81818H145.895V7.29261H146.042C146.301 6.4124 146.735 5.74763 147.344 5.2983C147.953 4.8428 148.655 4.61506 149.449 4.61506C149.646 4.61506 149.859 4.62737 150.086 4.65199C150.314 4.67661 150.514 4.71046 150.686 4.75355V8.24361C150.502 8.18821 150.246 8.13897 149.92 8.09588C149.594 8.05279 149.295 8.03125 149.025 8.03125C148.446 8.03125 147.929 8.15743 147.473 8.4098C147.024 8.65601 146.667 9.00071 146.402 9.44389C146.144 9.88707 146.015 10.398 146.015 10.9766V19H142.081Z" fill="#1B99E0"/>
</svg>
